<?xml version="1.0" encoding="utf-8"?>
<!DOCTYPE svg PUBLIC "-//W3C//DTD SVG 1.0//EN" "http://www.w3.org/TR/2001/REC-SVG-20010904/DTD/svg10.dtd">
<svg version="1.0" xmlns="http://www.w3.org/2000/svg" width="1216px" height="864px" viewBox="0 0 1216 864" preserveAspectRatio="xMidYMid meet">
 <g fill="#fefdfd">
  <path d="M0 432 l0 -432 608 0 608 0 0 432 0 432 -608 0 -608 0 0 -432z m240.5 316.2 c21.2 -4.6 45.9 -15.4 63.5 -27.9 14.3 -10.2 33.9 -30.3 43.2 -44.3 62.7 -94.6 32.2 -221.1 -64.7 -268.6 -14.3 -7 -25.8 -11 -41.6 -14.6 -9 -2 -13.1 -2.3 -29.9 -2.3 -16.5 0.1 -21.1 0.4 -30 2.3 -33.9 7.4 -62.7 22.5 -86.6 45.5 -15.6 15 -25.6 28.4 -34.9 47.2 -8.4 17 -13.1 31.3 -16.6 51 -3.1 17 -3.3 47.5 -0.6 63 7.3 41 22.9 72.7 48.2 98 29.7 29.8 63 46.1 108 52.9 7 1 33.3 -0.3 42 -2.2z m912.7 -166.9 c0.3 -126.6 0.4 -136.2 2.1 -141 3.1 -9.3 9.1 -14.2 19.9 -16.3 2.9 -0.6 6.3 -1.3 7.6 -1.6 1.4 -0.3 2.2 -1.2 2.2 -2.4 0 -2 -0.8 -2 -39.4 -2 -38.9 0 -42.7 0.3 -39.8 3.2 0.5 0.5 4.3 1.6 8.3 2.4 14 2.7 20.2 7.9 23.5 19.9 1.5 5.4 1.8 16 2.1 99.8 l0.5 93.7 -3.9 -0.1 c-3.7 0 -4 -0.3 -13.7 -13.2 -5.5 -7.3 -25.7 -34.1 -45.1 -59.7 -19.3 -25.6 -48 -63.6 -63.8 -84.5 -15.7 -20.9 -32.6 -43.2 -37.4 -49.5 l-8.8 -11.5 -35.8 -0.3 c-35.1 -0.2 -35.7 -0.2 -35.7 1.8 0 1.2 0.8 2.1 2.3 2.4 14.3 3 18.2 4.1 22.8 6.3 3 1.5 7.7 5 10.4 7.8 2.8 2.7 16.3 19.9 30.1 38 13.8 18.2 34 44.7 44.9 59 10.9 14.3 25.7 33.7 32.9 43 7.1 9.4 19.7 25.8 28 36.5 8.2 10.7 18.6 24.2 23 30 57.5 75 56.6 74 59.8 74 l2.7 0 0.3 -135.7z m-637.5 132.2 c0.7 -2.3 -1.6 -3.4 -9.2 -4.4 -14.1 -2 -21.1 -7.8 -23.5 -19.6 -1.1 -5.8 -2.1 -226.1 -1 -242.5 1.3 -19.3 2.7 -20.2 30 -20.8 16.7 -0.3 20.9 -0.1 29.3 1.6 13.7 2.9 23.4 7.8 32.3 16.7 15.3 15.2 21.2 34 20.1 64.8 -0.5 17.4 -1.9 23.4 -7.8 35.5 -5.6 11.5 -14.4 20.7 -24.9 26.1 -12.1 6.3 -20.6 8.2 -40.2 8.8 l-16.8 0.6 0 3.2 0 3.3 8.3 0.7 c9.5 0.8 27.3 -0.8 39.8 -3.5 40.1 -8.7 66 -27.6 77.8 -56.7 4.3 -10.5 5.6 -16.9 5.5 -27.8 0 -12.1 -1.9 -19.6 -7.9 -32 -12.1 -24.8 -34 -39.5 -70 -46.8 -10.8 -2.2 -12.5 -2.2 -80.5 -2.2 -68.5 0 -69.5 0 -69.5 2 0 1.6 1.1 2.1 7.6 3.2 9.9 1.7 13.9 3.4 17.7 7.7 6.3 7.2 6.4 8.4 6.9 68.6 0.5 70.9 -1 188.2 -2.6 193.1 -1.9 6.2 -5.4 10.2 -11.1 13.1 -3 1.5 -7.3 2.8 -9.5 2.9 -6.3 0.2 -9 1.2 -9.3 3.7 l-0.3 2.2 54.2 -0.2 c35 -0.2 54.3 -0.7 54.6 -1.3z m350.7 -10.2 c4.3 -18.4 11.4 -50.4 12.2 -54.5 0.5 -3.3 0.4 -3.8 -1.2 -3.8 -1.5 0 -3 2.4 -6.2 9.8 -10 23.1 -21.9 38.4 -34.4 44.2 -11.2 5.2 -16.4 6 -41.8 6.7 -25.8 0.6 -45.2 -0.6 -51.8 -3.2 -5.4 -2.2 -9.7 -7.1 -11.9 -13.7 -1.6 -4.9 -1.8 -13.8 -2.1 -123.8 -0.2 -76.2 0.1 -120.7 0.7 -125 0.8 -5.3 1.6 -7 4.1 -9.2 l3 -2.8 32.8 0 c18 0 35.6 0.5 39.2 1 8.2 1.3 19.4 6.6 24.4 11.5 5.3 5.3 10.8 14 14.6 23.3 3.8 9.1 5.6 11.5 6.6 8.8 0.6 -1.5 -4.2 -39.4 -6.3 -50.8 l-0.5 -2.8 -95.8 0 c-82.7 0 -95.9 0.2 -97 1.5 -1.3 1.6 -1.2 1.6 9.4 3.5 7.6 1.3 14 4.4 16.6 8 5.1 7.1 5 5.6 5.1 133.5 0 80.5 -0.3 120.5 -1 123.6 -3.1 13.6 -7.8 17.7 -23.1 20.2 -6.6 1 -7.5 1.5 -7.8 3.5 l-0.3 2.2 104.9 0 104.9 0 2.7 -11.7z m118.6 9.8 c0 -2.7 -1 -3.2 -9.3 -4.2 -9.3 -1.2 -17 -4.9 -20.3 -9.9 -5.9 -8.9 -5.8 -6.2 -6.1 -106 l-0.4 -91.5 -7.1 -9 c-3.8 -5 -7.2 -9.2 -7.4 -9.4 -0.2 -0.2 -0.4 44.6 -0.4 99.5 0.1 99.5 -0.2 107 -3.4 113.2 -3.8 7.3 -12.6 12.2 -24.3 13.7 -4.7 0.6 -5.3 0.9 -5.3 3.1 l0 2.4 42 0 c40.9 0 42 -0.1 42 -1.9z m-155 -155.6 c0 -36.2 -0.1 -38.5 -1.8 -38.5 -1.3 0 -2.4 2.1 -4.5 8.8 -3.6 11.8 -7.7 17.1 -16.3 21.3 l-6.8 3.4 -24.6 0.6 c-13.5 0.4 -24.6 0.8 -24.7 0.8 -0.2 0.1 -0.3 1.9 -0.3 4.1 l0 4 16.3 0 c36.6 0.1 46.8 3.5 54.2 18.2 1.9 3.9 3.5 7.9 3.5 8.9 0 3.1 1.9 6.9 3.5 6.9 1.3 0 1.5 -4.7 1.5 -38.5z m-596.8 -201.7 c-0.9 -0.9 -1.2 -10 -1.2 -34.9 l0 -33.7 -4.8 -0.4 -4.8 -0.3 0.7 4 c1.1 5.5 1.1 58.1 0 62.8 l-0.9 3.7 6.1 0 c4.7 0 5.8 -0.3 4.9 -1.2z m364.8 -12 c-0.3 -7.3 -0.3 -23.3 0 -35.6 l0.5 -22.2 -4.5 0 -4.5 0 0.3 31 c0.2 17.4 -0.1 33 -0.6 35.5 l-1 4.5 5.2 0 5.1 0 -0.5 -13.2z m50.8 8 c-0.5 -2.9 -0.8 -18.7 -0.6 -35 l0.3 -29.8 -4.1 0 -4 0 -0.2 34.1 c-0.1 18.8 -0.5 34.5 -0.8 35 -0.3 0.5 1.9 0.9 4.9 0.9 l5.4 0 -0.9 -5.2z m48.8 3 c-1.4 -1.9 -1.6 -7 -1.6 -35.5 l0 -33.3 -5 0 c-4.8 0 -5 0.1 -4 2 0.8 1.4 1 12.8 0.8 35.5 l-0.3 33.5 5.8 0 c5.8 0 5.8 0 4.3 -2.2z m34.4 1.3 c0 -0.5 0.3 -1.8 0.6 -2.8 0.3 -1 0.2 -1.4 -0.3 -0.7 -0.4 0.5 -1.9 1.8 -3.3 2.7 l-2.4 1.7 2.7 0 c1.5 0 2.7 -0.4 2.7 -0.9z m42 -1.7 c-0.6 -1.4 -1 -16.5 -1 -35.5 l0 -32.9 -4.2 0 -4.3 0 0 35.5 0 35.5 5.2 0 c5.2 0 5.2 0 4.3 -2.6z m66 0.4 c0 -1.2 -0.1 -1.9 -0.3 -1.7 -0.1 0.2 -0.9 1.2 -1.6 2.2 -1.2 1.4 -1.1 1.7 0.3 1.7 1 0 1.6 -0.8 1.6 -2.2z m53.3 -3.5 c-1.4 -3.2 -5.1 -12.4 -8.4 -20.5 -3.2 -8 -8.1 -19.9 -10.8 -26.5 -2.7 -6.5 -5.5 -13.1 -6.2 -14.8 l-1.1 -3 -2.8 6 c-3.6 7.7 -3.6 8.5 -0.2 8.5 2.4 0 3.2 0.7 4.5 3.8 4.7 10.8 7.7 19.6 7.7 22.7 0 2.4 0.5 3.5 1.4 3.5 2.2 0 7.6 14.9 7.6 21 l0 5 5.4 0 5.5 0 -2.6 -5.7z m80.1 2.2 l3.6 -1.5 0 -12.5 0 -12.5 -4.2 0 -4.3 0 0.3 14 c0.2 7.7 0.5 14 0.6 14 0.2 0 2 -0.7 4 -1.5z m34.5 -1.2 c-1.3 -1.6 -2.5 -3 -2.6 -3.2 -0.2 -0.2 -0.3 1 -0.3 2.7 0 2.8 0.3 3.2 2.7 3.2 l2.6 0 -2.4 -2.7z m-584.7 -4.3 l-2.7 -5.5 0 -27.7 0 -27.8 -3.2 0 c-1.7 0 -3.7 -0.2 -4.5 -0.5 -1.1 -0.4 -1.2 3.9 -0.7 24.7 0.5 23.6 0.7 25.7 2.8 30.5 2 4.6 9.6 13.1 10.6 12.1 0.2 -0.2 -0.8 -2.8 -2.3 -5.8z m387.7 -1 c1 -1.4 2.3 -4 3 -5.9 0.9 -2.9 0.8 -4.1 -0.9 -7.7 -1.7 -3.5 -8.1 -9.4 -10.2 -9.4 -0.3 0 0.3 1.7 1.3 3.7 2.4 4.6 2.6 16.7 0.4 21.9 l-1.4 3.5 3 -1.8 c1.7 -1 3.9 -2.9 4.8 -4.3z m-299.5 -1.7 c-6.4 -12.5 -7 -35.6 -1.2 -47.3 2 -4 2.1 -4.7 0.7 -4 -2.7 1.5 -7.7 8.3 -10.7 14.7 -2.2 4.7 -2.7 7.2 -2.7 13.3 0 6.5 0.5 8.5 3.2 14.1 2 4 5.3 8.5 8.2 11.3 2.8 2.5 5.2 4.6 5.5 4.6 0.2 0 -1.1 -3 -3 -6.7z m418.7 2.2 c-4.8 -7.6 -6.4 -15.3 -5.9 -30.1 0.3 -11.6 0.6 -13.5 3.1 -18.9 l2.8 -6 -4.4 4.3 c-14.6 14.3 -14.1 36.2 1.2 50.5 2.7 2.6 5.2 4.7 5.5 4.7 0.3 0 -0.7 -2 -2.3 -4.5z m-606.1 -0.5 c-3.2 -6.2 -5 -15.7 -5 -26.2 0 -10.9 1.3 -18.4 4.2 -24.3 l2 -4 -4.1 4 c-2.3 2.2 -5.6 6.9 -7.4 10.4 -2.7 5.6 -3.1 7.5 -3.1 14 0 9.9 2.9 17.3 9.6 24.6 2.7 3 5.2 5.5 5.4 5.5 0.3 0 -0.5 -1.8 -1.6 -4z m723.6 -3.7 c3.5 -9.1 -2 -16.8 -19 -26.3 -5.4 -3 -11.1 -7 -12.7 -8.8 -2.6 -2.9 -2.9 -4 -2.9 -10.3 0 -7.7 -0.8 -8.1 -4 -1.9 -2.7 5.3 -2.5 8.9 0.8 13.8 3.4 5.1 6.1 7.2 18.6 14.7 12.9 7.7 14.9 10.4 14.4 19.7 -0.3 6.2 -0.2 6.6 1.4 5.1 1 -0.8 2.5 -3.5 3.4 -6z m-767.5 -3.6 c6.6 -10.2 7.5 -21.3 2.6 -32.1 -2.5 -5.3 -8.6 -12.4 -12.6 -14.6 -1.8 -0.9 -1.7 -0.4 0.9 3.2 7.7 11.2 8.3 37.9 0.9 50.6 l-1.8 3.2 3.1 -2.2 c1.7 -1.3 4.8 -4.9 6.9 -8.1z m99.5 -3.6 c3.8 -7.9 4.4 -18.5 1.5 -26.3 -2.4 -6.1 -7.6 -13.6 -11.3 -16 l-2.3 -1.5 2.7 5.6 c6 12.2 6.3 35 0.8 48.1 l-2 4.5 4 -4.4 c2.2 -2.3 5.2 -6.8 6.6 -10z m417.4 -17.7 c0 -1.4 -0.3 -1.4 -1.5 -0.4 -0.8 0.7 -1.5 1.4 -1.5 1.6 0 0.2 0.7 0.4 1.5 0.4 0.8 0 1.5 -0.7 1.5 -1.6z m8.9 -10.1 c4.3 -5.4 3.6 -11 -2.1 -15.8 -3.6 -3 -5.3 -3.3 -3.9 -0.6 1.7 3 2.4 12.2 1.3 16.8 -0.9 3.9 -0.8 4.2 0.8 3.3 1 -0.6 2.8 -2.2 3.9 -3.7z m-248.9 -16.8 c0 -0.8 -1 -1.9 -2.1 -2.6 -2.1 -1.1 -2.1 -1.1 -0.3 1.5 2.2 3 2.4 3.1 2.4 1.1z m418 -0.9 c0 -0.7 -0.9 -1.6 -2.1 -1.9 -2 -0.5 -2 -0.5 -0.3 1.4 2 2.3 2.4 2.3 2.4 0.5z m-474.2 -47.1 c-1.7 -1 -3.1 -2.9 -3.7 -5.3 -0.7 -2.3 -1.1 -22.6 -1.1 -54.9 l0 -51.3 15.5 0 c19.4 0 23.6 1.4 28.7 9.5 l1.8 3 -0.4 -3 c-0.3 -1.6 -0.8 -4.7 -1.1 -6.7 l-0.6 -3.8 -51.8 0 -51.8 0 -0.7 3.8 c-1.2 7.2 -0.9 7.6 3.2 3.4 5 -5.3 8.8 -6.2 26.5 -6.2 l14.7 0 0 53 c0 44.9 -0.2 53.5 -1.5 56 -0.8 1.5 -2 3 -2.7 3.3 -0.7 0.3 5.2 0.6 13.2 0.6 13.3 0 14.3 -0.1 11.8 -1.4z m93.5 -0.9 l-2.8 -2.4 -0.3 -27.6 -0.3 -27.6 32.6 0 32.5 0 0 26.5 c0 21.5 -0.3 27.1 -1.5 29.5 -0.8 1.5 -2 3 -2.7 3.3 -0.7 0.3 4.7 0.6 12.1 0.6 l13.5 0.1 -2.2 -2 c-1.2 -1.1 -2.4 -3.1 -2.7 -4.3 -0.3 -1.2 -0.4 -25 -0.3 -52.8 0.3 -48.2 0.4 -50.8 2.2 -52.8 l1.9 -2.1 -12.2 0 -12.2 0 2 2.6 c2 2.5 2.1 3.9 2.1 26 l0 23.4 -32.6 0 -32.5 0 0.3 -23.9 c0.3 -21.9 0.5 -24.1 2.2 -26 l1.9 -2.1 -12.2 0 -12.2 0 2.1 2.8 c2 2.7 2 3.6 1.8 55.1 l-0.3 52.3 -2.4 1.9 c-2.3 1.9 -2.3 1.9 11.3 1.9 l13.7 0 -2.8 -2.4z m197.5 0.7 c1.1 -2.1 3.4 -12.4 2.9 -12.9 -0.2 -0.2 -1.7 1.6 -3.4 4 -1.9 2.7 -4.9 5.2 -7.9 6.7 -4.7 2.3 -5.9 2.4 -24.1 2.4 -18.7 0 -19.3 -0.1 -21.5 -2.3 l-2.3 -2.3 -0.3 -53.4 -0.3 -53.5 19.3 0 c21.5 0 25.2 0.9 29.9 6.8 l2.4 3.1 -0.3 -5.4 -0.4 -5.5 -36 0 c-35.6 0 -36 0 -33.7 1.9 l2.4 1.9 0 52.7 0 52.7 -2.8 2.4 -2.8 2.4 39 0 c36.2 0 39.1 -0.1 39.9 -1.7z m-14.8 -58.6 l0 -7.3 -4.4 4 -4.4 4.1 2.9 1.2 c1.5 0.6 3.4 2.1 4.1 3.2 0.7 1.2 1.4 2.1 1.5 2.1 0.2 0 0.3 -3.3 0.3 -7.3z"/>
  <path d="M195.2 743 c-10.8 -1.5 -21.3 -4.9 -32.7 -10.5 -40.5 -19.8 -65.1 -63.4 -72.6 -128.5 -1.8 -15.8 -1.5 -59.7 0.5 -75.5 4.4 -34.5 13.6 -62.2 27.4 -82.9 2.6 -3.8 8.5 -11 13.1 -15.8 13.3 -14 28.8 -23.3 47.9 -28.6 9.2 -2.5 10.9 -2.6 31.7 -2.6 21 0 22.4 0.1 31 2.7 47.5 14.4 76.4 53.6 87.1 118.2 2.5 15.5 3.1 69.4 0.9 88.5 -3.2 27.9 -9.2 50.4 -19 70.8 -7.2 15.1 -13.2 23.9 -23.3 34.4 -20.1 20.8 -40.5 29.6 -70.7 30.3 -8.2 0.2 -17.8 0 -21.3 -0.5z m37.3 -48.5 c14.1 -2.5 18 -5.4 17.6 -13.5 l-0.2 -5 7.9 0 c9.1 0 17.9 -2.4 25.8 -6.9 5.1 -3 5.2 -3.1 6.8 -10.3 2.7 -12.1 2.9 -14.2 1.3 -20.4 -4.3 -16.9 -9 -23.4 -19.6 -27.4 -5.5 -2 -6.7 -2.2 -10.4 -1.1 -2.3 0.7 -6.1 2.6 -8.3 4.2 -3.3 2.2 -5.7 3 -11.1 3.5 -4.8 0.5 -7.2 0.3 -7.7 -0.5 -0.4 -0.6 -1.6 -5.5 -2.6 -10.8 -1 -5.4 -2.6 -12.7 -3.4 -16.3 -0.8 -3.6 -2 -10.8 -2.6 -16 -2.3 -19.6 -12.7 -71.3 -17.5 -87 -1.7 -5.8 -2.5 -10.4 -2.4 -14.3 0.2 -5.3 -0.1 -6.3 -4 -12.2 -7.5 -11.5 -15.8 -14.2 -24.7 -8.3 -7.7 5.2 -10.1 11 -12.2 29.5 -1 8.3 -1.6 15.6 -1.4 16.2 0.2 0.5 1.9 1.5 3.8 2.1 3.1 1.1 3.4 1.5 3.4 5.1 0 2.2 -0.9 5.7 -1.9 7.7 -2.2 4.2 -1.7 8.8 1.8 19.2 1.1 3 2.2 7.5 2.5 10 1.2 10 3.5 21.7 4.9 25.7 0.9 2.4 2.8 10 4.3 17 2.5 11.5 2.8 15.7 3.4 41.8 0.4 17 1.2 30.4 1.9 32.5 2.4 7.5 1.4 10 -8.2 20.1 -4 4.3 -4 5.5 0.1 9.2 7 6.4 33.6 9.5 52.7 6.2z"/>
 </g>
 <g fill="#e9438b">
  <path d="M195.5 753.4 c-44.8 -6.7 -78.4 -23.1 -108 -52.9 -25.3 -25.3 -40.8 -56.9 -48.2 -98 -2.8 -15.8 -2.5 -51.8 0.6 -69 3.5 -19.7 8.2 -34 16.6 -51 23.7 -47.6 67.3 -80.9 121.5 -92.7 9.2 -2 13.4 -2.3 33 -2.3 20 0 23.7 0.3 32.9 2.3 45.4 10.2 84 36.2 108.4 73 20.7 31.2 30.7 65.8 30.7 105.7 0 41.1 -10.7 77.2 -32.8 110.5 -9.3 14 -28.9 34.1 -43.2 44.3 -17.6 12.4 -42.2 23.3 -63.5 27.9 -8.8 1.9 -40.3 3.3 -48 2.2z m42.5 -15.7 c18.5 -4.8 32.1 -12.9 46.2 -27.5 10.1 -10.5 16.1 -19.3 23.3 -34.4 9.8 -20.4 15.8 -42.9 19 -70.8 2.2 -18.7 1.6 -67 -0.9 -82.5 -9.1 -55.5 -32.1 -92.8 -68.1 -110.5 -5.5 -2.8 -14 -6.2 -19 -7.7 -8.4 -2.5 -10.2 -2.7 -28 -2.7 -17.5 0 -19.7 0.2 -28.7 2.7 -19 5.2 -34.6 14.5 -47.9 28.5 -4.6 4.8 -10.5 12 -13.1 15.8 -13.8 20.7 -23 48.6 -27.4 82.9 -1.9 15.7 -2.2 53.9 -0.5 69.5 7.4 64.9 32.1 108.7 72.6 128.5 17.9 8.8 31.1 11.6 51 11 8.4 -0.3 14.9 -1.1 21.5 -2.8z"/>
  <path d="M196.5 697.9 c-15.2 -2.2 -23.5 -7.3 -23.5 -14.3 0 -2.7 0.9 -4.4 3.8 -7.5 8.4 -8.9 9.3 -10.5 8 -14.2 -0.6 -1.9 -1.4 -15.8 -1.8 -32.4 -0.6 -26.1 -0.9 -30.3 -3.4 -41.8 -1.5 -7 -3.4 -14.6 -4.3 -17 -1.4 -3.9 -3.6 -15.4 -5 -25.7 -0.3 -2.5 -1.6 -7.7 -2.8 -11.6 -3.7 -11 -4.2 -18.2 -1.6 -23.2 2.8 -5.4 2.7 -5.8 -1.4 -7.2 -2.2 -0.7 -3.7 -2 -4 -3.3 -0.8 -3.3 3.2 -35 4.9 -39.2 4.1 -9.7 11.1 -14.7 20.6 -14.7 8.4 0 13.5 3.2 19.3 11.9 5.1 7.7 5.3 8.4 4.3 13.5 -0.6 2.8 -0.1 6.1 2.2 14 5 16.7 15 66.5 17.2 85.8 0.6 5.2 1.8 12.4 2.6 16 0.8 3.6 2.4 10.9 3.4 16.3 1 5.3 2.2 10.2 2.5 10.7 1 1.6 8.7 -0.1 12.3 -2.7 8.1 -6 18.3 -6.7 28.4 -1.9 7.1 3.4 10.8 8.2 14.5 19 3.4 10 3.7 21.2 0.9 32.9 -1.8 7.7 -1.9 7.8 -7 10.8 -7.8 4.5 -16.7 6.9 -25.6 6.9 l-7.8 0 0.5 4.3 c0.6 4.8 -1.8 8.6 -6.7 11.2 -7.4 3.8 -34.7 5.7 -50.5 3.4z"/>
  <path d="M1138 711.7 c-5.9 -7.5 -31.1 -40.3 -50.6 -65.7 -4.4 -5.8 -14.8 -19.3 -23 -30 -8.3 -10.7 -20.9 -27.1 -28 -36.5 -7.2 -9.3 -22 -28.7 -32.9 -43 -10.9 -14.3 -31.1 -40.8 -44.9 -59 -13.8 -18.1 -27.3 -35.3 -30.1 -38 -2.7 -2.8 -7.4 -6.3 -10.4 -7.8 -4.6 -2.2 -8.5 -3.3 -22.8 -6.3 -2 -0.4 -2.3 -1.1 -2.3 -5.4 l0 -5 38.7 0.2 38.8 0.3 8.8 11.5 c4.8 6.3 21.7 28.6 37.4 49.5 15.8 20.9 44.5 58.9 63.8 84.5 19.4 25.6 39.6 52.4 45.1 59.7 5.4 7.3 10.3 13.2 10.7 13.2 0.5 0.1 0.7 -40.7 0.4 -90.6 -0.4 -81.3 -0.6 -91.4 -2.1 -96.7 -3.3 -11.8 -8.2 -16.5 -20.1 -19.1 -12.6 -2.9 -12 -2.5 -12 -7.5 l0 -4.5 42.8 -0.3 42.7 -0.2 0 5 c0 4.3 -0.3 5 -2.2 5.4 -1.3 0.3 -4.7 1 -7.6 1.6 -10.8 2.1 -16.8 7 -19.9 16.3 -1.7 4.8 -1.8 14.4 -2.1 141 l-0.3 135.7 -5.7 0 -5.7 0 -6.5 -8.3z"/>
  <path d="M404 713.1 c0 -2.8 0.5 -5.3 1.1 -5.6 0.6 -0.4 3.7 -0.9 6.9 -1.2 11.2 -1 19.2 -6.9 22.1 -16.2 1.6 -4.8 3.1 -122.4 2.6 -190.1 -0.5 -56.9 -0.7 -58.5 -6.9 -65.6 -3.8 -4.3 -7.8 -6 -17.7 -7.7 l-7.6 -1.3 0 -4.9 0 -5 72.5 0 c71.1 0 72.7 0 83.5 2.2 27.7 5.7 47.6 16.1 60.4 31.5 6 7.2 13.2 21.3 15.8 30.8 2.2 8.2 2.5 29.9 0.4 38 -3.9 15.4 -10.7 27.4 -21.6 38.6 -12.8 13.1 -25.5 20.4 -46.7 26.8 -19.4 5.8 -42 8.6 -59.1 7.1 l-8.7 -0.7 0 -6.3 0 -6.2 16.8 -0.6 c19.6 -0.6 28.1 -2.5 40.2 -8.8 14.2 -7.4 25.9 -22.8 30.6 -40.4 2.2 -8.2 2.9 -28.3 1.5 -38.5 -1.5 -9.9 -5.2 -21.6 -9.4 -29 -4.7 -8.5 -15.8 -18.8 -24.9 -23.3 -12.2 -6 -23.7 -8 -43.8 -7.5 -24 0.6 -25.8 2 -27 20.8 -1 16.2 -0.1 230.7 1.1 236.5 2.3 11.8 9.2 17.6 23.4 19.6 4.4 0.6 8.3 1.6 8.8 2.2 0.4 0.7 0.6 3 0.5 5.2 l-0.3 4 -57.2 0.3 -57.3 0.2 0 -4.9z"/>
  <path d="M651.2 712.8 l0.3 -5.3 7.5 -1.2 c15.3 -2.5 20.1 -6.6 23.1 -20.2 0.7 -3 1 -44.3 1 -120.6 -0.1 -124.7 -0.1 -123.4 -5.1 -130.5 -2.6 -3.6 -9 -6.7 -16.6 -8 -10.7 -1.9 -10.4 -1.7 -10.4 -5.3 0 -1.8 0.5 -3.8 1.2 -4.5 0.9 -0.9 24.5 -1.2 100 -1.2 54.3 0 98.8 0.2 98.8 0.4 0 0.2 1.1 8.1 2.5 17.5 6.4 43.8 6.4 43.1 0 43.1 -4 0 -4.5 -0.6 -8.5 -10.2 -3.8 -9.3 -9.3 -18.1 -14.6 -23.3 -5 -4.9 -16.2 -10.2 -24.4 -11.5 -3.6 -0.5 -19.9 -1 -36.2 -1 l-29.8 0 -3 2.8 c-2.5 2.2 -3.3 3.9 -4.1 9.2 -0.6 4.3 -0.9 47.7 -0.7 122 0.3 107.1 0.5 115.9 2.1 120.8 2.2 6.6 6.5 11.5 11.9 13.7 2.3 0.9 9.6 2.1 16.2 2.7 16 1.4 51.1 0.4 59.1 -1.7 20.8 -5.4 33 -18.1 46.6 -48.5 l4.8 -10.5 4.1 0.1 c2.2 0 4.5 0.5 5.1 1.1 1.3 1.3 -0.7 11.6 -9.2 48.2 -3.2 14 -5.9 25.8 -5.9 26.3 0 0.4 -48.6 0.8 -108.1 0.8 l-108 0 0.3 -5.2z"/>
  <path d="M897.6 714.9 c-1.2 -6.1 0 -7.7 6.2 -8.5 12.4 -1.5 21 -7 24.8 -15.9 2.3 -5.5 2.5 -13.4 2.7 -121.9 0.1 -60.9 0.5 -93 1.2 -93.2 0.6 -0.2 5.1 4.8 10 11.1 l9 11.5 0.6 91.7 c0.6 100 0.4 97.4 6.3 106.3 3.3 5 11 8.7 20.3 9.9 3.9 0.5 7.6 1.2 8.2 1.6 0.6 0.3 1.1 2.8 1.1 5.6 l0 4.9 -44.9 0 -44.8 0 -0.7 -3.1z"/>
  <path d="M823 596.4 c-0.6 -1.4 -1 -3.3 -1 -4.3 0 -1 -1.6 -5 -3.5 -8.9 -7.4 -14.7 -17.6 -18.1 -54.2 -18.2 l-16.3 0 0 -7 c0 -3.8 0.1 -7 0.3 -7.1 0.1 0 11.2 -0.4 24.7 -0.8 l24.6 -0.6 6.8 -3.4 c8.6 -4.2 12.7 -9.5 16.3 -21.3 l2.8 -8.8 4.7 0 4.8 0 0 41.5 0 41.5 -4.5 0 c-4 0 -4.7 -0.3 -5.5 -2.6z"/>
  <path d="M334.3 359.5 c-10.6 -3.3 -20.5 -12.3 -24.5 -22.3 -1.8 -4.7 -2.3 -7.6 -2.3 -16.2 0 -9.3 0.3 -11.2 2.7 -16.2 2.5 -5.3 10.1 -14.8 11.9 -14.8 0.5 0 2.9 -1.3 5.4 -2.9 13.6 -8.7 36 -5.7 48 6.4 16.5 16.5 13.9 47.5 -5.1 60.6 -9.3 6.4 -25.4 8.8 -36.1 5.4z m20 -3.6 c2.1 -0.6 5.6 -2.6 7.7 -4.5 14.1 -12.8 12.4 -50.1 -2.8 -60.8 -7.5 -5.3 -20.3 -4.8 -27.3 1.1 -12.6 10.7 -13.3 44.5 -1 57.6 5.9 6.5 14.9 9 23.4 6.6z"/>
  <path d="M429.5 359.7 c-9.4 -3.1 -14 -7.1 -17.7 -15.2 -2.1 -4.7 -2.3 -6.6 -2.6 -29.5 -0.2 -14.3 -0.8 -25 -1.4 -25.7 -0.5 -0.7 -2.6 -1.5 -4.5 -1.9 -2.4 -0.5 -3.3 -1.1 -3.1 -2.3 0.3 -1.4 2.3 -1.6 15.8 -1.6 13.5 0.1 15.5 0.3 15.8 1.7 0.2 1.1 -0.6 1.8 -2.7 2.3 -5.5 1.2 -5.6 1.7 -5.6 27.9 l0 24.1 2.7 5.5 c4 8.1 8.1 10.5 17.8 10.5 6.7 0 8.2 -0.4 11.8 -2.8 2.3 -1.5 5.2 -4.6 6.4 -7 2.2 -4 2.3 -5.5 2.6 -28.5 0.4 -27.1 0.2 -28.1 -6 -29.8 -1.8 -0.5 -3.3 -1.6 -3.3 -2.4 0 -2.2 24.1 -2.5 24.9 -0.4 0.5 1.4 -0.2 1.8 -6.2 3.9 -2.6 0.9 -3.2 6.2 -3.2 26.4 0 29.1 -2.3 36.7 -13.3 42.7 -4.5 2.5 -6.4 2.9 -14.7 3.1 -5.9 0.2 -11 -0.2 -13.5 -1z"/>
  <path d="M523 359.6 c-11.6 -3.1 -20.8 -10.8 -25.8 -21.4 -2.4 -5 -2.7 -6.9 -2.7 -16.2 0 -9.7 0.2 -11 3.2 -17.2 3.8 -8.2 10 -14.5 17.7 -18.3 8.1 -3.9 22 -5.2 33 -3 11.6 2.4 11.3 2.1 12.1 12.1 0.5 5.9 0.4 8.9 -0.4 9.7 -1.4 1.4 -2.3 0.4 -4.1 -4.3 -3.6 -9.4 -10.5 -14 -21.1 -14 -11.4 0.1 -18.6 5.4 -23 17 -2.8 7.1 -3 22.7 -0.6 31.1 3.9 13.2 13 20.9 24.9 20.9 9.7 0 16.7 -4.9 20.9 -14.8 2.7 -6.2 4.5 -5 4.1 2.6 -0.6 11.8 -1.4 12.7 -12.7 15.7 -7 1.8 -19.2 1.9 -25.5 0.1z"/>
  <path d="M939 359.2 c-14.4 -4.8 -24.3 -16.2 -27 -31.2 -2.2 -12.4 2.2 -26.2 11.2 -34.6 11.3 -10.6 26.5 -13.8 45.2 -9.5 l9.5 2.2 0.6 6.2 c1.4 12.7 -1 17.8 -4 8.8 -1.9 -5.8 -7.3 -11.2 -13 -13.1 -2 -0.7 -6.7 -1 -10.5 -0.8 -9.9 0.5 -15.4 4.1 -20 13.2 -3.5 6.8 -3.5 7.1 -3.5 19.5 0 10.7 0.4 13.4 2.3 18.2 3.1 7.7 9.1 14.3 15 16.6 5.9 2.2 15.1 2.2 18.6 -0.1 2.5 -1.6 2.6 -1.9 2.6 -12.6 0 -11.9 -0.7 -13.6 -6.1 -14.7 -1.6 -0.3 -2.9 -1.2 -2.9 -1.9 0 -1.1 2.9 -1.4 15 -1.4 11.8 0 15 0.3 15 1.3 0 0.7 -1.5 2 -3.2 2.8 l-3.3 1.4 -0.5 13 -0.5 12.9 -7 2.5 c-9.6 3.3 -25.5 3.9 -33.5 1.3z"/>
  <path d="M1013.5 359.5 c-2.7 -0.8 -6.5 -1.4 -8.2 -1.5 l-3.3 0 0 -11.1 c0 -9.5 0.2 -11 1.6 -10.7 0.9 0.2 2.4 2.7 3.5 5.8 2.6 7.5 7.9 12.4 15 14 9.9 2.1 16.6 -2.1 17.6 -11.1 0.7 -6.6 -2.2 -10.2 -14.3 -17.4 -12.5 -7.5 -15.2 -9.6 -18.6 -14.7 -3.6 -5.2 -3.9 -13.8 -0.8 -19.9 4.8 -9.3 18.8 -13.1 34 -9.3 l7.5 1.9 0.3 8.8 c0.3 9.6 -0.8 11.3 -3.4 5 -5.2 -12.5 -17.8 -17.1 -25.6 -9.3 -2.2 2.3 -2.8 3.7 -2.8 7.4 0 6.2 3.3 9.7 15.4 16.6 12.2 6.9 15.9 9.9 18.5 15.3 5.8 11.9 -1.4 27 -14.7 30.7 -5.1 1.4 -15.7 1.1 -21.7 -0.5z"/>
  <path d="M212 358 c0 -1.5 0.7 -2 2.4 -2 6.2 0 6.9 -4.3 6.4 -39.1 -0.3 -27.7 -0.4 -28.2 -5.9 -29.4 -2.1 -0.5 -2.9 -1.2 -2.7 -2.3 0.3 -1.5 2.5 -1.7 21.5 -1.5 22.3 0.2 29.1 1.1 37.3 5.3 5.9 3 11.8 9.3 14.9 15.9 2.3 5 2.6 6.8 2.6 16.6 0 10.1 -0.2 11.5 -2.9 16.9 -3.5 7.2 -8.9 12.7 -15.5 16.1 -9.3 4.7 -14.8 5.5 -37.3 5.5 -20.1 0 -20.8 -0.1 -20.8 -2z m46.4 -4.9 c6.1 -2.7 11.1 -8.8 13.5 -16.6 3.7 -12 2.2 -28.2 -3.5 -36.8 -5.2 -7.8 -16.9 -12.6 -27.8 -11.3 l-5.6 0.7 0 31.3 c0 34.3 -0.1 33.7 6 34.9 4.2 0.9 13.1 -0.3 17.4 -2.2z"/>
  <path d="M577.5 359 c-0.4 -0.6 1.1 -1.8 3.4 -2.7 2.2 -0.8 4.3 -2.3 4.8 -3.2 1.1 -2.3 1.6 -56.1 0.6 -60.2 -0.9 -3.2 -2.9 -4.9 -7.7 -6.4 -1.4 -0.4 -1.6 -0.9 -0.8 -1.7 0.7 -0.7 6.6 -1.1 15.9 -1.2 12.9 -0.1 14.8 0.1 15.1 1.5 0.2 1.1 -0.6 1.9 -2.5 2.4 -5.1 1.2 -5.3 1.8 -5.3 16.1 l0 13.4 17.9 0 17.8 0 0.6 -4.6 c0.6 -6.1 -0.3 -21.6 -1.5 -23.1 -0.5 -0.6 -2.3 -1.5 -3.9 -1.8 -1.6 -0.4 -2.9 -1.2 -2.9 -1.9 0 -1 3.7 -1.5 14.8 -1.8 8.1 -0.3 15.3 -0.3 16 0 2.1 0.8 0.8 2.5 -2.5 3.4 -5.7 1.5 -5.8 1.7 -6.1 30.7 -0.1 14.6 0.1 28.6 0.5 31.1 0.7 4 1.2 4.7 5.1 6.5 2.3 1.1 4.2 2.5 4.2 3.2 0 1.1 -3.4 1.3 -16.2 1.1 -13.5 -0.3 -16.3 -0.6 -16.3 -1.8 0 -0.8 1.4 -1.7 3.4 -2.1 1.8 -0.4 3.7 -1.3 4.2 -2.1 0.5 -0.7 0.9 -8.2 0.9 -16.5 l0 -15.3 -17.9 0 -17.9 0 -0.3 3.3 c-0.2 1.7 -0.2 8.8 0.1 15.7 l0.5 12.5 4.3 2 c7.9 3.7 5.7 4.5 -11.7 4.5 -10.1 0 -16.2 -0.4 -16.6 -1z"/>
  <path d="M676.2 358.3 c0.2 -0.9 1.8 -2.1 3.6 -2.5 2.1 -0.6 3.6 -1.8 4.2 -3.4 0.6 -1.4 1 -15.4 1 -31.5 l0 -29 -2.5 -2.4 c-1.3 -1.4 -3.4 -2.5 -4.5 -2.5 -1.5 0 -2 -0.5 -1.8 -1.7 0.3 -1.7 2.4 -1.8 26.6 -1.8 16.4 0 26.7 0.4 27.1 1 0.5 0.6 1.1 4 1.4 7.8 0.6 6.1 0.5 6.7 -1.2 6.7 -1.1 0 -2.1 -0.9 -2.5 -2.3 -0.3 -1.2 -1.9 -3.6 -3.6 -5.2 -3.1 -2.9 -3.3 -3 -13.8 -3 l-10.7 0 -0.3 30.6 c-0.2 29.7 -0.2 30.7 1.9 33.2 1.9 2.6 2.5 2.7 11.2 2.7 7.5 0 9.8 -0.4 12.6 -2.1 4.1 -2.5 6.4 -5.2 8.7 -10.1 1.1 -2.5 2.4 -3.8 3.7 -3.8 2.2 0 2.2 -0.3 -0.9 13.8 l-1.6 7.2 -29.5 0 c-27.1 0 -29.4 -0.1 -29.1 -1.7z"/>
  <path d="M753.5 359 c-0.9 -1.5 0.4 -3 2.6 -3 1 0 2.8 -0.9 3.9 -2 1.9 -1.9 2 -3.3 2 -32.9 0 -30.9 0 -31 -2.2 -32.5 -1.2 -0.9 -3.3 -1.6 -4.5 -1.6 -1.3 0 -2.3 -0.6 -2.3 -1.4 0 -2.5 23.9 -3.5 38.9 -1.6 13.2 1.7 20.1 7.7 20.1 17.4 0 6.2 -2.4 10.5 -7.9 14.2 -4.5 2.9 -4.5 3.8 -0.4 4.9 4.8 1.1 10.1 5.5 12.4 10.2 2.5 5.2 2.3 11 -0.8 17 -2.4 4.6 -10.3 9.7 -17.5 11.2 -6.3 1.4 -43.5 1.5 -44.3 0.1z m43.2 -6.1 c6.3 -3.9 8.3 -17.4 3.6 -23.7 -4 -5.4 -6.9 -6.7 -15.9 -7.1 l-8.4 -0.3 0 13.8 c0 15.1 0.9 18.3 5 19.6 3.8 1.1 12.1 -0.1 15.7 -2.3z m-2.6 -39.5 c5.1 -5.1 5.8 -14.4 1.5 -20.9 -2 -3 -7.6 -4.7 -14.1 -4.3 l-5 0.3 -0.3 14.4 -0.3 14.3 7.6 -0.4 c6.8 -0.3 7.8 -0.6 10.6 -3.4z"/>
  <path d="M826.2 358.3 c0.2 -0.9 1.7 -2 3.4 -2.5 1.7 -0.4 3.8 -1.6 4.7 -2.6 1 -1.1 6.2 -13.1 11.7 -26.8 18.1 -44.9 17.9 -44.6 20.8 -44.2 2.2 0.3 3.1 1.6 6.3 9.3 2 5 8.4 20.6 14.2 34.8 5.8 14.2 11.3 26.7 12.3 27.8 0.9 1 2.5 1.9 3.4 1.9 2 0 4.3 2.4 3.3 3.3 -0.3 0.4 -7.5 0.7 -16 0.7 -14.6 0 -15.3 -0.1 -15.3 -2 0 -1.3 0.7 -2 1.9 -2 6 0 6.4 -2.7 2 -14 l-3 -8 -13.5 0 -13.5 0 -2 4.7 c-5.1 12 -4.9 16.3 0.7 17.3 1.7 0.3 3 1.2 3.2 2.3 0.3 1.5 -0.8 1.7 -12.3 1.7 -11.3 0 -12.6 -0.2 -12.3 -1.7z m46.8 -30.3 c0 -1 -4.7 -13.4 -7.7 -20.2 -2.7 -6.3 -4.3 -5 -9 7 -2.3 5.9 -4.5 11.5 -4.9 12.5 -0.6 1.6 0.3 1.7 10.5 1.7 6.5 0 11.1 -0.4 11.1 -1z"/>
  <path d="M721 327 c-1.7 -4 -3.7 -5 -10.4 -5 -4.4 0 -5.7 -0.4 -6.5 -1.9 -1.4 -2.6 -0.5 -3.1 5.1 -3.1 6.1 0 10.2 -2 11.8 -6 0.7 -1.6 1.9 -3 2.6 -3 1.1 0 1.4 2.3 1.4 11 0 8.7 -0.3 11 -1.4 11 -0.7 0 -1.9 -1.4 -2.6 -3z"/>
  <path d="M463.7 246 c-0.6 -2.2 1.7 -4 5.2 -4 3.3 0 5.1 -1.1 6.6 -4.1 1.3 -2.3 1.5 -10.9 1.5 -52.9 l0 -50 -11.7 0 c-6.5 0 -13.5 0.5 -15.5 1 -5.3 1.5 -9.3 5.2 -12.4 11.5 -2.1 4.4 -3.1 5.5 -5 5.5 -2.2 0 -2.4 -0.3 -1.9 -3.7 1.1 -8.5 2.5 -19.5 2.5 -20.4 0 -0.5 21.8 -0.9 54.9 -0.9 l54.9 0 0.6 2.7 c0.3 1.6 0.8 5.5 1.1 8.8 0.3 3.3 0.8 7.7 1.1 9.8 0.5 3.4 0.4 3.7 -2 3.7 -2 0 -2.9 -0.9 -4.6 -4.7 -4.8 -10.9 -9.7 -13.2 -27.2 -13.3 l-12.8 0 0 48.3 c0 30.3 0.4 49.6 1.1 51.9 1.1 4.2 3.8 6.1 10.2 7.2 3.2 0.6 3.8 1.1 3.5 2.9 -0.3 2.2 -0.4 2.2 -24.9 2.5 -24.1 0.2 -24.7 0.2 -25.2 -1.8z"/>
  <path d="M559 245.5 c0 -2 0.5 -2.5 2.5 -2.5 3.8 0 8.5 -2.7 9.5 -5.6 0.6 -1.5 1 -22.3 1 -50.4 l0 -47.9 -2.3 -2.6 c-1.5 -1.8 -3.6 -2.8 -6.5 -3.2 -3.6 -0.5 -4.2 -0.9 -4.2 -2.9 l0 -2.4 24.6 0 24.5 0 -0.3 2.2 c-0.2 1.8 -1.2 2.4 -4.8 3 -8.3 1.4 -8.5 1.9 -8.8 25.8 l-0.3 21 29.5 0 29.6 0 0 -20.4 c0 -19.8 -0.1 -20.6 -2.2 -23.1 -1.5 -1.7 -3.8 -2.8 -6.8 -3.3 -3.6 -0.6 -4.6 -1.2 -4.8 -3 l-0.3 -2.2 24.5 0 c13.6 0 24.7 0.4 25 0.9 1.3 2 -0.8 3.9 -4.9 4.5 -8.4 1.3 -8 -1.5 -8.3 52.5 -0.1 26.2 0 48.6 0.3 49.8 0.8 3.5 4.3 6 9.1 6.8 3.9 0.5 4.5 0.9 4.2 2.8 -0.3 2.2 -0.4 2.2 -24.8 2.2 -24.2 0 -24.5 0 -24.8 -2.1 -0.3 -1.8 0.4 -2.3 3.5 -2.8 10.3 -1.9 10.3 -1.8 10.3 -31.1 l0 -23.5 -29.5 0 -29.6 0 0.3 24.6 0.3 24.6 2.7 2.3 c1.5 1.3 4.5 2.6 6.7 3 3.5 0.6 4.1 1 4.1 3.1 l0 2.4 -24.5 0 -24.5 0 0 -2.5z"/>
  <path d="M702.7 247.3 c-0.4 -0.3 -0.7 -1.4 -0.7 -2.3 0 -1.3 1.1 -1.9 3.9 -2.4 2.2 -0.3 5.3 -1.7 6.8 -3 l2.8 -2.4 0.3 -46.9 c0.2 -25.7 0 -48.3 -0.3 -50.1 -0.7 -3.7 -4 -6.3 -9.3 -7.1 -2.8 -0.5 -3.8 -1.2 -4 -2.9 l-0.3 -2.2 43.4 0 43.4 0 0.7 8.1 c0.4 4.4 0.9 10 1.3 12.5 0.5 4 0.4 4.4 -1.6 4.4 -1.5 0 -2.5 -1.1 -3.6 -3.7 -2.5 -5.8 -6.4 -10.4 -10.9 -12.4 -3.5 -1.6 -6.6 -1.9 -20.4 -1.9 l-16.3 0 0.3 50.5 0.3 50.4 2.3 2.3 c2.1 2.1 3.2 2.3 16.7 2.6 21.8 0.6 27.7 -2.3 35.3 -16.6 3.4 -6.3 5.5 -8.3 7.2 -6.6 1 1 -3.4 25.5 -5.1 28.6 -0.9 1.7 -3.8 1.8 -46.3 1.8 -24.9 0 -45.6 -0.3 -45.9 -0.7z"/>
  <path d="M774.3 197.1 c-3 -7.2 -5.3 -8.3 -18.8 -8.9 -11.3 -0.5 -11.5 -0.5 -11.5 -2.8 0 -2.4 0.2 -2.4 10.1 -2.4 10.2 0 10.2 0 14.5 -3.5 2.8 -2.3 4.7 -5 5.6 -7.7 1.1 -3.1 2 -4.3 3.4 -4.3 1.8 0 1.9 1 2.2 17.3 0.2 16.1 0.1 17.2 -1.6 17.2 -1.2 0 -2.5 -1.6 -3.9 -4.9z"/>
 </g>
</svg>